<svg viewBox="0 0 100 100" xmlns="http://www.w3.org/2000/svg">
  <path fill="#D4AF37" d="M20 45a15 15 0 0 1-15-15 15 15 0 0 1 15-15 15 15 0 0 1 15 15 15 15 0 0 1-15 15zM50 35a15 15 0 0 1-15-15 15 15 0 0 1 15-15 15 15 0 0 1 15 15 15 15 0 0 1-15 15zM80 45a15 15 0 0 1-15-15 15 15 0 0 1 15-15 15 15 0 0 1 15 15 15 15 0 0 1-15 15zM50 50c-25 0-25 35-15 45s20 5 15 0 15 0 15 0 25-10 15-45z"/>
  <path fill="#D4AF37" d="M50 50 c-20 0 -30 25 -30 35 c 0 10 15 10 30 5 c 15 5 30 5 30 -5 c 0 -10 -10 -35 -30 -35 Z" />
</svg>
